# xmcd
#
# Track frame offsets: 
#        150
#        13829
#        25890
#        39227
#        50988
#        64325
#        74343
#        88001
#        103906
#        116228
#        128875
#        141112
#        153193
#        161659
#        172970
#        185629
#        197263
#        209522
#        221364
#        234058
#
# Disc length: 3278 seconds
#
# Revision: 0
# Processed by: cddbd v1.5.2PL0 Copyright (c) Steve Scherf et al.
# Submitted via: ExactAudioCopy v0.99pb5
#
DISCID=1f0ccc14
DTITLE=Various Artist - Greatest Blue Grass Hits
DYEAR=1900
DGENRE=Bluegrass
TTITLE0=Bill Monroe - Blue Moon Of Kentucky
TTITLE1=Lester Flatt and Earl Scruggs - Foggy Mountain Breakdown
TTITLE2=The Stanley Brothers - I'm A Man Of Constant Sorrow
TTITLE3=Ralph Stanley, Ricky Skaggs and Keith Whitley - We'll Be Sweehea
TTITLE3=rts In Heaven
TTITLE4=The Rouse Brothers - Orange Blossom Special
TTITLE5=Charlie Monroe's Boys - The Great Speckled Bird
TTITLE6=Brown's Ferry Four - Will The Circle Be Unbroken
TTITLE7=The Monroe Brothers - On The Banks Of The Ohio
TTITLE8=The Blue Sky Boys - Are You From Dixie
TTITLE9=Bill Monroe - Kentucky Waltz
TTITLE10=The Bailey Brothers - John Henry
TTITLE11=The Delmore Brothers - I'm Lonesome Without You
TTITLE12=Ralph Stanley and The Clinch Mountain Boys - Ain't It Hard
TTITLE13=Bill Monroe - New Mule Skinner Blues
TTITLE14=Uncle Dave Macon - Cumberland Mountain Deer Race
TTITLE15=The Armstrong Twins - Cabin Home In Caroline
TTITLE16=Bill Monroe - Uncle Pen
TTITLE17=Ralph Stanley, Ricky Skaggs and Keith Whitley - Lonesome River
TTITLE18=The Coon Creek Girls - Banjo Pickin' Girl
TTITLE19=Lester Flatt and Earl Scruggs - I'm Going To Make Heaven My Hom
TTITLE19=e
EXTD=
EXTT0=
EXTT1=
EXTT2=
EXTT3=
EXTT4=
EXTT5=
EXTT6=
EXTT7=
EXTT8=
EXTT9=
EXTT10=
EXTT11=
EXTT12=
EXTT13=
EXTT14=
EXTT15=
EXTT16=
EXTT17=
EXTT18=
EXTT19=
PLAYORDER=
